<svg xmlns="http://www.w3.org/2000/svg" version="1.1" xmlns:xlink="http://www.w3.org/1999/xlink" xmlns:svgjs="http://svgjs.dev/svgjs" width="1500" height="386" viewBox="0 0 1500 386"><g transform="matrix(1,0,0,1,-0.9090909090909918,0.1725830288569341)"><svg viewBox="0 0 396 102" data-background-color="#000000" preserveAspectRatio="xMidYMid meet" height="386" width="1500" xmlns="http://www.w3.org/2000/svg" xmlns:xlink="http://www.w3.org/1999/xlink"><g id="tight-bounds" transform="matrix(1,0,0,1,0.2400000000000091,-0.045604841822296294)"><svg viewBox="0 0 395.52 102.09120968364459" height="102.09120968364459" width="395.52"><g><svg viewBox="0 0 572.65303376342 147.81260352426304" height="102.09120968364459" width="395.52"><g transform="matrix(1,0,0,1,177.13303376342003,42.856523047695276)"><svg viewBox="0 0 395.52 62.099557428872494" height="62.099557428872494" width="395.52"><g id="textblocktransform"><svg viewBox="0 0 395.52 62.099557428872494" height="62.099557428872494" width="395.52" id="textblock"><g><svg viewBox="0 0 395.52 62.099557428872494" height="62.099557428872494" width="395.52"><g transform="matrix(1,0,0,1,0,0)"><svg width="395.52" viewBox="3.9 -36.75 237.23 37.25" height="62.099557428872494" data-palette-color="url(#579cff56-5e68-4730-93a9-0b83ffe90a26)"></svg></g></svg></g></svg></g></svg></g><g><svg viewBox="0 0 147.81260352426304 147.81260352426304" height="147.81260352426304" width="147.81260352426304"><g><svg></svg></g><g id="icon-0"><svg viewBox="0 0 147.81260352426304 147.81260352426304" height="147.81260352426304" width="147.81260352426304"><g></g><g transform="matrix(1,0,0,1,34.24854915767982,34.24854915767982)"><svg viewBox="0 0 79.3155052089034 79.3155052089034" height="79.3155052089034" width="79.3155052089034"><g><svg xmlns="http://www.w3.org/2000/svg" viewBox="0 0 8 8" x="0" y="0" height="79.3155052089034" width="79.3155052089034" class="icon-cg-0" data-fill-palette-color="accent" id="cg-0"></svg></g></svg></g></svg></g></svg></g></svg></g><defs></defs><mask id="7710ae73-f292-4305-ad20-84797ceee916"><g id="SvgjsG5915"><svg viewBox="0 0 395.52 102.09120968364459" height="102.09120968364459" width="395.52"><g><svg viewBox="0 0 572.65303376342 147.81260352426304" height="102.09120968364459" width="395.52"><g transform="matrix(1,0,0,1,177.13303376342003,42.856523047695276)"><svg viewBox="0 0 395.52 62.099557428872494" height="62.099557428872494" width="395.52"><g id="SvgjsG5914"><svg viewBox="0 0 395.52 62.099557428872494" height="62.099557428872494" width="395.52" id="SvgjsSvg5913"><g><svg viewBox="0 0 395.52 62.099557428872494" height="62.099557428872494" width="395.52"><g transform="matrix(1,0,0,1,0,0)"><svg width="395.52" viewBox="3.9 -36.75 237.23 37.25" height="62.099557428872494" data-palette-color="url(#579cff56-5e68-4730-93a9-0b83ffe90a26)"><path d="M28.7 0L22.25 0 14.85-13.9Q12.55-13.8 10.75-13.8L10.75-13.8 9.35-13.8 9.35 0 3.9 0 3.9-36.75 12.25-36.75Q18.6-36.75 22.7-34.13 26.8-31.5 26.8-25.6L26.8-25.6Q26.8-21.9 25.08-19.23 23.35-16.55 19.95-15.1L19.95-15.1 28.7 0ZM9.35-18.35L12.9-18.35Q17.8-18.35 19.63-20.48 21.45-22.6 21.45-25.55L21.45-25.55Q21.45-32.1 12.7-32.1L12.7-32.1 9.35-32.1 9.35-18.35ZM34.45 0L34.45-22.95 40.05-22.95 40.05 0 34.45 0ZM37.2-27.25Q35.65-27.25 34.6-28.3 33.55-29.35 33.55-30.9L33.55-30.9Q33.55-32.3 34.6-33.3 35.65-34.3 37.2-34.3L37.2-34.3Q38.7-34.3 39.75-33.3 40.8-32.3 40.8-30.9L40.8-30.9Q40.8-29.35 39.77-28.3 38.75-27.25 37.2-27.25L37.2-27.25ZM58.25 0.5Q54.85 0.5 52.12-0.98 49.4-2.45 47.8-5.23 46.2-8 46.2-11.75L46.2-11.75Q46.2-15.3 47.67-17.98 49.15-20.65 51.82-22.1 54.5-23.55 58-23.55L58-23.55Q60.65-23.55 62.57-22.88 64.5-22.2 65.59-21.2L65.59-21.2 63.2-16.85Q61.1-18.95 58.45-18.95L58.45-18.95Q55.25-18.95 53.57-17 51.9-15.05 51.9-11.8L51.9-11.8Q51.9-8.1 53.62-6.05 55.35-4 58.45-4L58.45-4Q60-4 61.47-4.45 62.95-4.9 63.75-5.5L63.75-5.5 65.7-1.7Q64.59-0.85 62.62-0.18 60.65 0.5 58.25 0.5L58.25 0.5ZM71.09 0L71.09-36.75 76.34-36.75 76.34-22.95 76.14-18.7Q77.09-20.8 79.19-22.18 81.29-23.55 84.09-23.55L84.09-23.55Q87.64-23.55 89.54-22.08 91.44-20.6 92.09-17.95 92.74-15.3 92.74-11.05L92.74-11.05 92.74 0 87.39 0 87.39-11.1Q87.39-14 87.07-15.65 86.74-17.3 85.77-18.15 84.79-19 82.94-19L82.94-19Q81.44-19 79.92-18.1 78.39-17.2 77.39-15.48 76.39-13.75 76.39-11.4L76.39-11.4 76.39 0 71.09 0ZM99.99 0L99.99-22.95 105.59-22.95 105.59 0 99.99 0ZM102.74-27.25Q101.19-27.25 100.14-28.3 99.09-29.35 99.09-30.9L99.09-30.9Q99.09-32.3 100.14-33.3 101.19-34.3 102.74-34.3L102.74-34.3Q104.24-34.3 105.29-33.3 106.34-32.3 106.34-30.9L106.34-30.9Q106.34-29.35 105.32-28.3 104.29-27.25 102.74-27.25L102.74-27.25ZM123.94 0.5Q119.84 0.5 117.09-1.13 114.34-2.75 113.04-5.48 111.74-8.2 111.74-11.45L111.74-11.45Q111.74-15.1 113.26-17.85 114.79-20.6 117.49-22.08 120.19-23.55 123.59-23.55L123.59-23.55Q128.89-23.55 131.46-20.63 134.04-17.7 134.04-12.4L134.04-12.4Q134.04-11.05 133.89-9.6L133.89-9.6 117.39-9.6Q117.94-6.55 119.56-5.2 121.19-3.85 124.09-3.85L124.09-3.85Q126.49-3.85 128.04-4.25 129.59-4.65 130.89-5.35L130.89-5.35 132.54-1.5Q131.29-0.7 129.14-0.1 126.99 0.5 123.94 0.5L123.94 0.5ZM117.39-13.35L128.79-13.35Q128.84-16.45 127.44-17.73 126.04-19 123.44-19L123.44-19Q118.19-19 117.39-13.35L117.39-13.35ZM177.08 0L170.63 0 163.23-13.9Q160.93-13.8 159.13-13.8L159.13-13.8 157.73-13.8 157.73 0 152.28 0 152.28-36.75 160.63-36.75Q166.98-36.75 171.08-34.13 175.18-31.5 175.18-25.6L175.18-25.6Q175.18-21.9 173.46-19.23 171.73-16.55 168.33-15.1L168.33-15.1 177.08 0ZM157.73-18.35L161.28-18.35Q166.18-18.35 168.01-20.48 169.83-22.6 169.83-25.55L169.83-25.55Q169.83-32.1 161.08-32.1L161.08-32.1 157.73-32.1 157.73-18.35ZM182.83 0L182.83-22.95 188.43-22.95 188.43 0 182.83 0ZM185.58-27.25Q184.03-27.25 182.98-28.3 181.93-29.35 181.93-30.9L181.93-30.9Q181.93-32.3 182.98-33.3 184.03-34.3 185.58-34.3L185.58-34.3Q187.08-34.3 188.13-33.3 189.18-32.3 189.18-30.9L189.18-30.9Q189.18-29.35 188.16-28.3 187.13-27.25 185.58-27.25L185.58-27.25ZM206.63 0.5Q203.23 0.5 200.5-0.98 197.78-2.45 196.18-5.23 194.58-8 194.58-11.75L194.58-11.75Q194.58-15.3 196.05-17.98 197.53-20.65 200.2-22.1 202.88-23.55 206.38-23.55L206.38-23.55Q209.03-23.55 210.95-22.88 212.88-22.2 213.98-21.2L213.98-21.2 211.58-16.85Q209.48-18.95 206.83-18.95L206.83-18.95Q203.63-18.95 201.95-17 200.28-15.05 200.28-11.8L200.28-11.8Q200.28-8.1 202-6.05 203.73-4 206.83-4L206.83-4Q208.38-4 209.85-4.45 211.33-4.9 212.13-5.5L212.13-5.5 214.08-1.7Q212.98-0.85 211-0.18 209.03 0.5 206.63 0.5L206.63 0.5ZM219.48 0L219.48-36.75 224.73-36.75 224.73-22.95 224.53-18.7Q225.48-20.8 227.58-22.18 229.68-23.55 232.48-23.55L232.48-23.55Q236.03-23.55 237.93-22.08 239.83-20.6 240.48-17.95 241.13-15.3 241.13-11.05L241.13-11.05 241.13 0 235.78 0 235.78-11.1Q235.78-14 235.45-15.65 235.13-17.3 234.15-18.15 233.18-19 231.33-19L231.33-19Q229.83-19 228.3-18.1 226.78-17.2 225.78-15.48 224.78-13.75 224.78-11.4L224.78-11.4 224.78 0 219.48 0Z" opacity="1" transform="matrix(1,0,0,1,0,0)" fill="white" class="wordmark-text-0" id="SvgjsPath5912"></path></svg></g></svg></g></svg></g></svg></g><g><svg viewBox="0 0 147.81260352426304 147.81260352426304" height="147.81260352426304" width="147.81260352426304"><g><svg></svg></g><g id="SvgjsG5911"><svg viewBox="0 0 147.81260352426304 147.81260352426304" height="147.81260352426304" width="147.81260352426304"><g><path d="M0 73.906c0-40.817 33.089-73.906 73.906-73.906 40.817 0 73.906 33.089 73.907 73.906 0 40.817-33.089 73.906-73.907 73.907-40.817 0-73.906-33.089-73.906-73.907zM73.906 142.212c37.724 0 68.306-30.582 68.306-68.306 0-37.724-30.582-68.306-68.306-68.306-37.724 0-68.306 30.582-68.306 68.306 0 37.724 30.582 68.306 68.306 68.306z" fill="black" stroke="transparent"></path></g><g transform="matrix(1,0,0,1,34.24854915767982,34.24854915767982)"><svg viewBox="0 0 79.3155052089034 79.3155052089034" height="79.3155052089034" width="79.3155052089034"><g><svg xmlns="http://www.w3.org/2000/svg" viewBox="0 0 8 8" x="0" y="0" height="79.3155052089034" width="79.3155052089034" class="icon-cg-0" data-fill-palette-color="accent" id="SvgjsSvg5910"><path d="M7.03 0l-3.03 3-1-1-3 3.03 1 1 2-2.03 1 1 4-4-0.97-1z m-7.03 7v1h8v-1h-8z" fill="black"></path></svg></g></svg></g></svg></g></svg></g></svg></g><defs><mask></mask></defs></svg><rect width="395.52" height="102.09120968364459" fill="black" stroke="none" visibility="hidden"></rect></g></mask><linearGradient x1="0.054" x2="0.941" y1="0.5" y2="0.5" id="579cff56-5e68-4730-93a9-0b83ffe90a26"><stop stop-color="#9c7945" offset="0"></stop><stop stop-color="#faf3aa" offset="0.498"></stop><stop stop-color="#9c7945" offset="1"></stop></linearGradient><rect width="395.52" height="102.09120968364459" fill="url(#579cff56-5e68-4730-93a9-0b83ffe90a26)" mask="url(#7710ae73-f292-4305-ad20-84797ceee916)" data-fill-palette-color="primary"></rect><mask id="aba6758c-c872-4887-a71c-b5236fc1a12c"><g id="SvgjsG5938"><svg viewBox="0 0 395.52 102.09120968364459" height="102.09120968364459" width="395.52"><g><svg viewBox="0 0 572.65303376342 147.81260352426304" height="102.09120968364459" width="395.52"><g transform="matrix(1,0,0,1,177.13303376342003,42.856523047695276)"><svg viewBox="0 0 395.52 62.099557428872494" height="62.099557428872494" width="395.52"><g id="SvgjsG5937"><svg viewBox="0 0 395.52 62.099557428872494" height="62.099557428872494" width="395.52" id="SvgjsSvg5936"><g><svg viewBox="0 0 395.52 62.099557428872494" height="62.099557428872494" width="395.52"><g transform="matrix(1,0,0,1,0,0)"><svg width="395.52" viewBox="3.9 -36.75 237.23 37.25" height="62.099557428872494" data-palette-color="url(#579cff56-5e68-4730-93a9-0b83ffe90a26)"></svg></g></svg></g></svg></g></svg></g><g><svg viewBox="0 0 147.81260352426304 147.81260352426304" height="147.81260352426304" width="147.81260352426304"><g><svg></svg></g><g id="SvgjsG5935"><svg viewBox="0 0 147.81260352426304 147.81260352426304" height="147.81260352426304" width="147.81260352426304"><g><path d="M0 73.906c0-40.817 33.089-73.906 73.906-73.906 40.817 0 73.906 33.089 73.907 73.906 0 40.817-33.089 73.906-73.907 73.907-40.817 0-73.906-33.089-73.906-73.907zM73.906 142.212c37.724 0 68.306-30.582 68.306-68.306 0-37.724-30.582-68.306-68.306-68.306-37.724 0-68.306 30.582-68.306 68.306 0 37.724 30.582 68.306 68.306 68.306z" fill="white" stroke="transparent"></path></g><g transform="matrix(1,0,0,1,34.24854915767982,34.24854915767982)"><svg viewBox="0 0 79.3155052089034 79.3155052089034" height="79.3155052089034" width="79.3155052089034"><g><svg xmlns="http://www.w3.org/2000/svg" viewBox="0 0 8 8" x="0" y="0" height="79.3155052089034" width="79.3155052089034" class="icon-cg-0" data-fill-palette-color="accent" id="SvgjsSvg5934"><path d="M7.03 0l-3.03 3-1-1-3 3.03 1 1 2-2.03 1 1 4-4-0.97-1z m-7.03 7v1h8v-1h-8z" fill="white"></path></svg></g></svg></g></svg></g></svg></g></svg></g><defs><mask></mask></defs><mask><g id="SvgjsG5933"><svg viewBox="0 0 395.52 102.09120968364459" height="102.09120968364459" width="395.52"><g><svg viewBox="0 0 572.65303376342 147.81260352426304" height="102.09120968364459" width="395.52"><g transform="matrix(1,0,0,1,177.13303376342003,42.856523047695276)"><svg viewBox="0 0 395.52 62.099557428872494" height="62.099557428872494" width="395.52"><g id="SvgjsG5932"><svg viewBox="0 0 395.52 62.099557428872494" height="62.099557428872494" width="395.52" id="SvgjsSvg5931"><g><svg viewBox="0 0 395.52 62.099557428872494" height="62.099557428872494" width="395.52"><g transform="matrix(1,0,0,1,0,0)"><svg width="395.52" viewBox="3.9 -36.75 237.23 37.25" height="62.099557428872494" data-palette-color="url(#579cff56-5e68-4730-93a9-0b83ffe90a26)"><path d="M28.7 0L22.25 0 14.85-13.9Q12.55-13.8 10.75-13.8L10.75-13.8 9.35-13.8 9.35 0 3.9 0 3.9-36.75 12.25-36.75Q18.6-36.75 22.7-34.13 26.8-31.5 26.8-25.6L26.8-25.6Q26.8-21.9 25.08-19.23 23.35-16.55 19.95-15.1L19.95-15.1 28.7 0ZM9.35-18.35L12.9-18.35Q17.8-18.35 19.63-20.48 21.45-22.6 21.45-25.55L21.45-25.55Q21.45-32.1 12.7-32.1L12.7-32.1 9.35-32.1 9.35-18.35ZM34.45 0L34.45-22.95 40.05-22.95 40.05 0 34.45 0ZM37.2-27.25Q35.65-27.25 34.6-28.3 33.55-29.35 33.55-30.9L33.55-30.9Q33.55-32.3 34.6-33.3 35.65-34.3 37.2-34.3L37.2-34.3Q38.7-34.3 39.75-33.3 40.8-32.3 40.8-30.9L40.8-30.9Q40.8-29.35 39.77-28.3 38.75-27.25 37.2-27.25L37.2-27.25ZM58.25 0.5Q54.85 0.5 52.12-0.98 49.4-2.45 47.8-5.23 46.2-8 46.2-11.75L46.2-11.75Q46.2-15.3 47.67-17.98 49.15-20.65 51.82-22.1 54.5-23.55 58-23.55L58-23.55Q60.65-23.55 62.57-22.88 64.5-22.2 65.59-21.2L65.59-21.2 63.2-16.85Q61.1-18.95 58.45-18.95L58.45-18.95Q55.25-18.95 53.57-17 51.9-15.05 51.9-11.8L51.9-11.8Q51.9-8.1 53.62-6.05 55.35-4 58.45-4L58.45-4Q60-4 61.47-4.45 62.95-4.9 63.75-5.5L63.75-5.5 65.7-1.7Q64.59-0.85 62.62-0.18 60.65 0.5 58.25 0.5L58.25 0.5ZM71.09 0L71.09-36.75 76.34-36.75 76.34-22.95 76.14-18.7Q77.09-20.8 79.19-22.18 81.29-23.55 84.09-23.55L84.09-23.55Q87.64-23.55 89.54-22.08 91.44-20.6 92.09-17.95 92.74-15.3 92.74-11.05L92.74-11.05 92.74 0 87.39 0 87.39-11.1Q87.39-14 87.07-15.65 86.74-17.3 85.77-18.15 84.79-19 82.94-19L82.94-19Q81.44-19 79.92-18.1 78.39-17.2 77.39-15.48 76.39-13.75 76.39-11.4L76.39-11.4 76.39 0 71.09 0ZM99.99 0L99.99-22.95 105.59-22.95 105.59 0 99.99 0ZM102.74-27.25Q101.19-27.25 100.14-28.3 99.09-29.35 99.09-30.9L99.09-30.9Q99.09-32.3 100.14-33.3 101.19-34.3 102.74-34.3L102.74-34.3Q104.24-34.3 105.29-33.3 106.34-32.3 106.34-30.9L106.34-30.9Q106.34-29.35 105.32-28.3 104.29-27.25 102.74-27.25L102.74-27.25ZM123.94 0.5Q119.84 0.5 117.09-1.13 114.34-2.75 113.04-5.48 111.74-8.2 111.74-11.45L111.74-11.45Q111.74-15.1 113.26-17.85 114.79-20.6 117.49-22.08 120.19-23.55 123.59-23.55L123.59-23.55Q128.89-23.55 131.46-20.63 134.04-17.7 134.04-12.4L134.04-12.4Q134.04-11.05 133.89-9.6L133.89-9.6 117.39-9.6Q117.94-6.55 119.56-5.2 121.19-3.85 124.09-3.85L124.09-3.85Q126.49-3.85 128.04-4.25 129.59-4.65 130.89-5.35L130.89-5.35 132.54-1.5Q131.29-0.7 129.14-0.1 126.99 0.5 123.94 0.5L123.94 0.5ZM117.39-13.35L128.79-13.35Q128.84-16.45 127.44-17.73 126.04-19 123.44-19L123.44-19Q118.19-19 117.39-13.35L117.39-13.35ZM177.08 0L170.63 0 163.23-13.9Q160.93-13.8 159.13-13.8L159.13-13.8 157.73-13.8 157.73 0 152.28 0 152.28-36.75 160.63-36.75Q166.98-36.75 171.08-34.13 175.18-31.5 175.18-25.6L175.18-25.6Q175.18-21.9 173.46-19.23 171.73-16.55 168.33-15.1L168.33-15.1 177.08 0ZM157.73-18.35L161.28-18.35Q166.18-18.35 168.01-20.48 169.83-22.6 169.83-25.55L169.83-25.55Q169.83-32.1 161.08-32.1L161.08-32.1 157.73-32.1 157.73-18.35ZM182.83 0L182.83-22.95 188.43-22.95 188.43 0 182.83 0ZM185.58-27.25Q184.03-27.25 182.98-28.3 181.93-29.35 181.93-30.9L181.93-30.9Q181.93-32.3 182.98-33.3 184.03-34.3 185.58-34.3L185.58-34.3Q187.08-34.3 188.13-33.3 189.18-32.3 189.18-30.9L189.18-30.9Q189.18-29.35 188.16-28.3 187.13-27.25 185.58-27.25L185.58-27.25ZM206.63 0.5Q203.23 0.5 200.5-0.98 197.78-2.45 196.18-5.23 194.58-8 194.58-11.75L194.58-11.75Q194.58-15.3 196.05-17.98 197.53-20.65 200.2-22.1 202.88-23.55 206.38-23.55L206.38-23.55Q209.03-23.55 210.95-22.88 212.88-22.2 213.98-21.2L213.98-21.2 211.58-16.85Q209.48-18.95 206.83-18.95L206.83-18.95Q203.63-18.95 201.95-17 200.28-15.05 200.28-11.8L200.28-11.8Q200.28-8.1 202-6.05 203.73-4 206.83-4L206.83-4Q208.38-4 209.85-4.45 211.33-4.9 212.13-5.5L212.13-5.5 214.08-1.7Q212.98-0.85 211-0.18 209.03 0.5 206.63 0.5L206.63 0.5ZM219.48 0L219.48-36.75 224.73-36.75 224.73-22.95 224.53-18.7Q225.48-20.8 227.58-22.18 229.68-23.55 232.48-23.55L232.48-23.55Q236.03-23.55 237.93-22.08 239.83-20.6 240.48-17.95 241.13-15.3 241.13-11.05L241.13-11.05 241.13 0 235.78 0 235.78-11.1Q235.78-14 235.45-15.65 235.13-17.3 234.15-18.15 233.18-19 231.33-19L231.33-19Q229.83-19 228.3-18.1 226.78-17.2 225.78-15.48 224.78-13.75 224.78-11.4L224.78-11.4 224.78 0 219.48 0Z" opacity="1" transform="matrix(1,0,0,1,0,0)" fill="black" class="wordmark-text-0" id="SvgjsPath5930"></path></svg></g></svg></g></svg></g></svg></g><g><svg viewBox="0 0 147.81260352426304 147.81260352426304" height="147.81260352426304" width="147.81260352426304"><g><svg></svg></g><g id="SvgjsG5929"><svg viewBox="0 0 147.81260352426304 147.81260352426304" height="147.81260352426304" width="147.81260352426304"><g><path d="M0 73.906c0-40.817 33.089-73.906 73.906-73.906 40.817 0 73.906 33.089 73.907 73.906 0 40.817-33.089 73.906-73.907 73.907-40.817 0-73.906-33.089-73.906-73.907zM73.906 142.212c37.724 0 68.306-30.582 68.306-68.306 0-37.724-30.582-68.306-68.306-68.306-37.724 0-68.306 30.582-68.306 68.306 0 37.724 30.582 68.306 68.306 68.306z" fill="black" stroke="transparent"></path></g><g transform="matrix(1,0,0,1,34.24854915767982,34.24854915767982)"><svg viewBox="0 0 79.3155052089034 79.3155052089034" height="79.3155052089034" width="79.3155052089034"><g><svg xmlns="http://www.w3.org/2000/svg" viewBox="0 0 8 8" x="0" y="0" height="79.3155052089034" width="79.3155052089034" class="icon-cg-0" data-fill-palette-color="accent" id="SvgjsSvg5928"><path d="M7.03 0l-3.03 3-1-1-3 3.03 1 1 2-2.03 1 1 4-4-0.97-1z m-7.03 7v1h8v-1h-8z" fill="black"></path></svg></g></svg></g></svg></g></svg></g></svg></g><defs><mask></mask></defs></svg><rect width="395.52" height="102.09120968364459" fill="black" stroke="none" visibility="hidden"></rect></g></mask></svg><rect width="395.52" height="102.09120968364459" fill="black" stroke="none" visibility="hidden"></rect></g></mask><linearGradient x1="0.054" x2="0.941" y1="0.5" y2="0.5" id="520fc0b7-aaed-459d-beb4-2e6d6f23db4b"><stop stop-color="#9c7945" offset="0"></stop><stop stop-color="#faf3aa" offset="0.498"></stop><stop stop-color="#9c7945" offset="1"></stop></linearGradient><rect width="395.52" height="102.09120968364459" fill="url(#520fc0b7-aaed-459d-beb4-2e6d6f23db4b)" mask="url(#aba6758c-c872-4887-a71c-b5236fc1a12c)" data-fill-palette-color="accent"></rect></svg><rect width="395.52" height="102.09120968364459" fill="none" stroke="none" visibility="hidden"></rect></g></svg></g></svg>